<svg width="131" height="167" viewBox="0 0 131 167" fill="none" xmlns="http://www.w3.org/2000/svg">
<g clip-path="url(#clip0_452_503)">
<path d="M12.4849 59.3952C15.939 58.5076 19.4124 57.71 22.8986 57.0024C31.6658 55.2593 35.7824 60.315 36.2391 66.4256C36.7151 72.4076 37.1911 78.3896 37.6606 84.378C38.2138 91.73 34.1422 96.4577 27.5106 97.8021C24.4038 98.4324 21.3163 99.1464 18.2353 99.9376C16.3185 86.4234 14.4017 72.9158 12.4849 59.4016V59.3952ZM23.0852 92.6691C24.3716 92.3797 25.6581 92.1031 26.9509 91.8458C31.6529 90.9131 31.8973 86.8094 31.7365 85.1306C31.1705 79.2837 30.6045 73.4303 30.0384 67.5834C29.8776 65.8725 28.8227 61.9488 23.6898 62.9651C22.2876 63.2481 20.8918 63.5504 19.496 63.8592C20.6924 73.4625 21.8888 83.0658 23.0787 92.6691H23.0852Z" fill="#E5376B"/>
<path d="M39.7511 54.2687C47.4569 53.3361 55.2013 52.8343 62.9457 52.7571C62.9585 54.8348 62.9714 56.9124 62.9778 58.9964C57.6262 59.0479 52.2682 59.3116 46.9294 59.7811C47.116 63.5311 47.2961 67.2811 47.4826 71.0311C52.0238 70.6323 56.5713 70.3879 61.1254 70.2978C61.1511 72.3755 61.1704 74.4531 61.1961 76.5371C56.7257 76.6272 52.2489 76.8651 47.7913 77.2575C47.9779 81.0075 48.158 84.7575 48.3445 88.5075C53.2716 88.0765 58.2051 87.8385 63.1451 87.7871C63.1579 89.8647 63.1708 91.9423 63.1772 94.0263C56.2755 94.0971 49.3801 94.5474 42.5169 95.3707C41.5907 81.67 40.6709 67.9758 39.7446 54.2752L39.7511 54.2687Z" fill="#E5376B"/>
<path d="M67.3454 52.7571C69.5259 52.7829 71.7 52.8343 73.8741 52.9308C75.45 57.1761 76.9745 61.4407 78.4346 65.7181C80.2034 61.6529 82.0302 57.6071 83.9084 53.5869C86.0825 53.7799 88.2502 54.0114 90.4178 54.2687C89.498 67.9694 88.5718 81.6636 87.652 95.3642C85.7223 95.1327 83.7926 94.9268 81.8565 94.7532C82.2682 86.4556 82.6863 78.158 83.0979 69.8605C81.2905 73.8484 79.5409 77.8557 77.8492 81.8887C76.4535 77.6563 75.0062 73.4368 73.5011 69.2301C73.3081 77.5405 73.1151 85.851 72.9222 94.1678C70.9861 94.0842 69.0435 94.0392 67.1074 94.0135C67.191 80.2614 67.2747 66.5093 67.3518 52.7571H67.3454Z" fill="#E5376B"/>
<path d="M92.5535 84.5581C93.0423 78.4346 93.5247 72.3111 94.0136 66.1876C94.541 59.1701 98.7027 54.526 106.434 56.0376C114.159 57.6006 117.112 63.6662 116.102 70.5873C115.246 76.6336 114.384 82.6863 113.529 88.7326C112.513 95.6987 108.544 99.7703 101.758 98.4003C94.9656 97.0688 92.026 91.6271 92.5599 84.5645L92.5535 84.5581ZM109.837 69.0822C110.049 67.3776 110.525 63.1195 105.759 62.1482C100.986 61.222 100.517 65.4801 100.349 67.1911C99.7576 73.2953 99.1658 79.3995 98.5676 85.5101C98.4004 87.2468 98.0595 91.4406 102.421 92.2832C106.782 93.1709 107.354 89.0285 107.573 87.2982C108.325 81.2262 109.078 75.1477 109.83 69.0757L109.837 69.0822Z" fill="#E5376B"/>
<path d="M13.6812 107.302C16.4663 106.634 19.2643 106.016 22.0688 105.456C29.1314 104.067 32.7527 108.004 33.4667 112.866C34.2 117.613 34.9268 122.367 35.6601 127.114C36.522 132.948 33.6404 136.743 28.5074 137.772C26.1018 138.254 23.709 138.782 21.3226 139.354C18.7755 128.67 16.2283 117.986 13.6812 107.302ZM24.6481 133.681C25.6515 133.462 26.655 133.257 27.6584 133.057C31.3183 132.337 31.2476 129.069 31.016 127.744C30.1927 123.106 29.3758 118.469 28.5525 113.831C28.3145 112.474 27.221 109.374 23.1108 110.184C21.9916 110.409 20.8724 110.641 19.7532 110.885C21.387 118.488 23.0208 126.085 24.6481 133.687V133.681Z" fill="#A1C128"/>
<path d="M38.8698 126.786C38.2008 121.916 37.5255 117.041 36.8565 112.172C36.0589 106.595 38.5032 102.073 44.8003 101.443C51.0975 100.845 54.3586 104.807 54.6481 110.435C54.9246 115.343 55.2012 120.257 55.4778 125.165C55.7673 130.825 53.4002 134.98 48.1 135.482C42.8063 136.01 39.6738 132.388 38.8698 126.786ZM49.5602 110.782C49.4508 109.406 49.1421 105.99 45.2763 106.357C41.4105 106.749 41.7643 110.158 41.9187 111.528C42.4783 116.417 43.0379 121.299 43.5975 126.187C43.7583 127.577 44.1957 130.922 47.6241 130.574C51.0524 130.253 50.8402 126.882 50.7308 125.493C50.3385 120.591 49.9525 115.69 49.5602 110.789V110.782Z" fill="#A1C128"/>
<path d="M58.7324 125.01C58.4108 117.067 58.0892 109.123 57.7676 101.179C59.5686 101.108 61.3696 101.057 63.1707 101.025C63.3057 108.975 63.4408 116.925 63.5759 124.875C63.6016 126.271 63.756 129.552 67.0622 129.539C70.3748 129.552 70.5227 126.271 70.5484 124.875C70.6835 116.925 70.8186 108.975 70.9536 101.025C72.7547 101.057 74.5557 101.108 76.3567 101.179C76.0351 109.123 75.7135 117.067 75.3919 125.01C75.1346 130.671 72.4202 134.575 67.0622 134.562C61.7041 134.575 58.9897 130.761 58.7324 125.01Z" fill="#A1C128"/>
<path d="M78.0548 134.247C78.6658 123.28 79.2769 112.313 79.888 101.346C82.7632 101.507 85.6384 101.726 88.5072 101.996C95.8463 102.716 98.252 107.45 97.4608 112.879C96.9076 116.822 94.978 119.916 91.4402 121.035C92.463 125.962 93.3763 130.889 94.1804 135.823C92.5787 135.598 90.9707 135.392 89.3626 135.212C88.5329 130.619 87.6131 126.027 86.5968 121.441C85.5998 121.344 84.5964 121.26 83.5994 121.183C83.2456 125.641 82.8982 130.098 82.5445 134.556C81.0458 134.44 79.547 134.337 78.0483 134.254L78.0548 134.247ZM83.9789 116.404C85.0337 116.488 86.0886 116.578 87.1371 116.681C91.3631 117.092 92.2571 113.619 92.4179 112.23C92.5787 110.859 92.5144 107.2 88.0633 106.762C86.9634 106.659 85.8571 106.563 84.7572 106.473C84.4934 109.785 84.2361 113.091 83.9724 116.404H83.9789Z" fill="#A1C128"/>
<path d="M98.4901 127.262C99.2363 122.399 99.9888 117.543 100.735 112.68C101.565 107.103 105.199 103.482 111.432 104.691C117.658 105.939 119.671 110.673 118.334 116.147C117.195 120.932 116.05 125.712 114.912 130.497C113.567 135.997 110.094 139.296 104.852 138.248C99.6093 137.225 97.6475 132.858 98.4837 127.255L98.4901 127.262ZM113.336 115.015C113.625 113.664 114.301 110.306 110.48 109.534C106.653 108.795 106.016 112.165 105.778 113.522C104.916 118.366 104.054 123.203 103.192 128.046C102.948 129.423 102.407 132.755 105.804 133.411C109.193 134.093 109.952 130.806 110.248 129.436C111.277 124.631 112.307 119.82 113.336 115.015Z" fill="#A1C128"/>
<path d="M47.1289 155.139H51.2198V153.988H48.3446V151.91H50.866V150.759H48.3446V148.681H51.2198V147.53H47.1289V155.139Z" fill="#E5376B"/>
<path d="M54.0306 147.382C52.6155 147.382 51.998 148.289 51.998 149.549C51.998 150.919 52.7506 151.408 53.947 151.936C54.7446 152.289 54.944 152.611 54.944 153.164V153.209C54.944 153.467 54.8797 154.148 54.0371 154.148C53.1494 154.148 53.1173 153.396 53.1173 153.029V152.341H51.998V153.029C51.998 154.116 52.3776 155.274 54.0306 155.274C55.5358 155.274 56.0632 154.335 56.0632 153.106C56.0632 151.633 55.3106 151.28 54.1143 150.726C53.5161 150.45 53.1173 150.128 53.1173 149.485V149.44C53.1173 149.183 53.1816 148.501 54.0242 148.501C54.9118 148.501 54.944 149.253 54.944 149.62V149.884H56.0632V149.62C56.0632 148.533 55.6901 147.375 54.0306 147.375V147.382Z" fill="#E5376B"/>
<path d="M56.835 148.713H58.2886V155.139H59.5043V148.713H60.9516V147.53H56.835V148.713Z" fill="#E5376B"/>
<path d="M64.4443 153.769H63.0742V155.139H64.4443V153.769Z" fill="#E5376B"/>
<path d="M69.436 151.775C70.2979 150.913 70.6645 150.315 70.6645 149.517C70.6645 148.166 69.9763 147.382 68.632 147.382C67.2169 147.382 66.5994 148.308 66.5994 149.627V150.07H67.725V149.627C67.725 149.305 67.7379 148.507 68.632 148.507C69.4424 148.507 69.5196 149.106 69.5196 149.511C69.5196 150.122 68.9793 150.662 68.6255 151.016C67.6092 152.032 66.5801 152.81 66.5801 154.354V155.126H70.671V153.016H69.5839V153.981H67.7572C67.7572 153.261 68.6448 152.566 69.436 151.768V151.775Z" fill="#E5376B"/>
<path d="M73.4945 147.382C72.1244 147.382 71.4619 148.308 71.4619 149.627V153.036C71.4619 154.354 72.1244 155.28 73.4945 155.28C74.8646 155.28 75.5271 154.354 75.5271 153.036V149.627C75.5271 148.308 74.8646 147.382 73.4945 147.382ZM72.5747 149.627C72.5747 149.305 72.594 148.488 73.4945 148.488C74.157 148.488 74.4014 148.951 74.4014 149.305L72.5747 151.659V149.627ZM74.4143 153.036C74.4143 153.357 74.395 154.174 73.4945 154.174C72.832 154.174 72.6004 153.711 72.6004 153.357L74.4143 151.009V153.036Z" fill="#E5376B"/>
<path d="M79.1679 151.775C80.0298 150.913 80.3965 150.315 80.3965 149.517C80.3965 148.166 79.7082 147.382 78.3639 147.382C76.9488 147.382 76.3313 148.308 76.3313 149.627V150.07H77.4569V149.627C77.4569 149.305 77.4698 148.507 78.3639 148.507C79.1744 148.507 79.2515 149.106 79.2515 149.511C79.2515 150.122 78.7112 150.662 78.3575 151.016C77.3412 152.032 76.312 152.81 76.312 154.354V155.126H80.4029V153.016H79.3159V153.981H77.4891C77.4891 153.261 78.3768 152.566 79.1679 151.768V151.775Z" fill="#E5376B"/>
<path d="M83.6831 150.579L85.2654 148.61V147.523H81.1938V149.292H82.2809V148.539H84.0305L81.8757 151.202L82.6282 151.833C82.8469 151.633 83.1364 151.621 83.2393 151.621C83.503 151.621 84.1462 151.73 84.1462 152.881C84.1462 153.743 83.7732 154.155 83.2393 154.155C82.7054 154.155 82.3516 153.878 82.3516 153.068V152.849H81.2003V153.068C81.2003 155.062 82.506 155.268 83.2329 155.268C83.9211 155.268 85.2912 155.068 85.2912 152.881C85.2912 151.498 84.6608 150.572 83.6896 150.572L83.6831 150.579Z" fill="#E5376B"/>
<path d="M123.113 97.4611C123.093 97.4289 123.081 97.3903 123.074 97.3517C123.029 97.1716 123.093 96.9851 123.158 96.8114C123.949 94.6823 127.307 73.4238 129.063 65.0426C130.786 56.7901 131.449 45.7266 127.834 41.8866C123.949 37.7571 119.536 34.1165 114.526 31.4921C113.368 30.8875 99.6416 24.9505 99.1656 26.1984C101.359 20.4158 101.693 13.1667 99.1592 7.43557C97.0494 2.66928 92.4503 0.270062 87.401 0.0192046C84.8925 -0.103008 82.371 0.250765 79.9525 0.913285C78.4667 1.31852 72.8192 4.4896 71.8801 4.09081C66.6507 1.83953 60.4886 3.5698 56.7064 7.69285C51.863 12.9737 53.857 20.5445 53.6704 26.9702C52.5383 26.7708 51.387 26.5907 50.2034 26.4428C38.7541 25.0148 27.4398 28.5011 17.3219 33.6469C9.05003 37.86 -1.64033 43.366 0.212148 54.5002C1.46643 62.0323 2.48273 69.6031 3.49902 77.1674C3.96214 80.615 4.42526 84.0627 4.91411 87.5104C5.09421 88.7904 7.21685 97.8084 6.46428 98.4195C1.68513 102.305 1.93599 108.184 3.31892 113.69C4.972 120.283 6.57362 126.889 8.15595 133.501C9.19154 137.823 9.57748 142.686 12.3369 146.359C16.788 152.296 24.6225 150.225 30.7524 148.996C32.5148 148.642 34.1679 148.108 35.6859 147.414C35.6859 147.452 35.6859 147.491 35.6859 147.53C35.6859 152.56 34.8626 158.226 38.2781 162.401C42.98 168.132 52.4033 166.736 58.9513 166.878C63.4796 166.974 68.0079 166.993 72.5426 166.936C76.8908 166.878 81.8372 167.328 86.1082 166.524C94.9653 164.845 96.7085 156.181 96.7085 148.623V147.536C96.7085 147.472 96.7085 147.414 96.7085 147.349C96.7278 148.758 104.601 149.819 105.585 149.871C111.728 150.18 117.51 147.485 121.389 142.744C124.663 138.743 126.142 133.803 127.255 128.857C128.458 123.537 129.802 118.121 129.732 112.628C129.648 106.35 127.307 102.324 123.319 97.7376C123.248 97.654 123.171 97.564 123.126 97.4675L123.113 97.4611Z" fill="white"/>
<path d="M94.6759 41.0441C94.7724 41.0569 95.0232 41.0891 94.6759 41.0441V41.0441Z" fill="#A1C128"/>
<path d="M12.4849 59.3952C15.939 58.5076 19.4124 57.71 22.8986 57.0024C31.6658 55.2593 35.7824 60.315 36.2391 66.4256C36.7151 72.4076 37.1911 78.3896 37.6606 84.378C38.2138 91.73 34.1422 96.4577 27.5106 97.8021C24.4038 98.4324 21.3163 99.1464 18.2353 99.9376C16.3185 86.4234 14.4017 72.9158 12.4849 59.4016V59.3952ZM23.0852 92.6691C24.3716 92.3797 25.6581 92.1031 26.9509 91.8458C31.6529 90.9131 31.8973 86.8094 31.7365 85.1306C31.1705 79.2837 30.6045 73.4303 30.0384 67.5834C29.8776 65.8725 28.8227 61.9488 23.6898 62.9651C22.2876 63.2481 20.8918 63.5504 19.496 63.8592C20.6924 73.4625 21.8888 83.0658 23.0787 92.6691H23.0852Z" fill="#E5376B"/>
<path d="M39.7511 54.2687C47.4569 53.3361 55.2013 52.8343 62.9457 52.7572C62.9585 54.8348 62.9714 56.9124 62.9778 58.9964C57.6262 59.0479 52.2682 59.3116 46.9294 59.7812C47.116 63.5311 47.2961 67.2811 47.4826 71.0311C52.0238 70.6323 56.5713 70.3879 61.1254 70.2978C61.1511 72.3755 61.1704 74.4531 61.1961 76.5371C56.7257 76.6272 52.2489 76.8652 47.7913 77.2575C47.9779 81.0075 48.158 84.7575 48.3445 88.5075C53.2716 88.0765 58.2051 87.8385 63.1451 87.7871C63.1579 89.8647 63.1708 91.9423 63.1772 94.0263C56.2755 94.0971 49.3801 94.5474 42.5169 95.3707C41.5907 81.67 40.6709 67.9758 39.7446 54.2752L39.7511 54.2687Z" fill="#E5376B"/>
<path d="M67.3454 52.7572C69.5259 52.7829 71.7 52.8343 73.8741 52.9308C75.45 57.1761 76.9745 61.4407 78.4346 65.7181C80.2034 61.6529 82.0302 57.6071 83.9084 53.5869C86.0825 53.7799 88.2502 54.0114 90.4178 54.2687C89.498 67.9694 88.5718 81.6636 87.652 95.3642C85.7223 95.1327 83.7926 94.9269 81.8565 94.7532C82.2682 86.4556 82.6863 78.158 83.0979 69.8605C81.2905 73.8484 79.5409 77.8557 77.8492 81.8887C76.4535 77.6563 75.0062 73.4368 73.5011 69.2301C73.3081 77.5405 73.1151 85.851 72.9222 94.1679C70.9861 94.0842 69.0435 94.0392 67.1074 94.0135C67.191 80.2614 67.2747 66.5093 67.3518 52.7572H67.3454Z" fill="#E5376B"/>
<path d="M92.5535 84.5581C93.0423 78.4346 93.5247 72.3111 94.0136 66.1876C94.541 59.1701 98.7027 54.526 106.434 56.0376C114.159 57.6006 117.112 63.6662 116.102 70.5873C115.246 76.6336 114.384 82.6863 113.529 88.7326C112.513 95.6987 108.544 99.7703 101.758 98.4003C94.9656 97.0688 92.026 91.6271 92.5599 84.5645L92.5535 84.5581ZM109.837 69.0822C110.049 67.3776 110.525 63.1195 105.759 62.1482C100.986 61.222 100.517 65.4801 100.349 67.1911C99.7576 73.2953 99.1658 79.3995 98.5676 85.5101C98.4004 87.2468 98.0595 91.4406 102.421 92.2832C106.782 93.1709 107.354 89.0285 107.573 87.2982C108.325 81.2262 109.078 75.1477 109.83 69.0757L109.837 69.0822Z" fill="#E5376B"/>
<path d="M13.6812 107.302C16.4663 106.634 19.2643 106.016 22.0688 105.456C29.1314 104.067 32.7527 108.004 33.4667 112.866C34.2 117.613 34.9268 122.367 35.6601 127.114C36.522 132.948 33.6404 136.743 28.5074 137.772C26.1018 138.254 23.709 138.782 21.3226 139.354C18.7755 128.67 16.2283 117.986 13.6812 107.302ZM24.6481 133.681C25.6515 133.462 26.655 133.257 27.6584 133.057C31.3183 132.337 31.2476 129.069 31.016 127.744C30.1927 123.106 29.3758 118.469 28.5525 113.831C28.3145 112.474 27.221 109.374 23.1108 110.184C21.9916 110.409 20.8724 110.641 19.7532 110.885C21.387 118.488 23.0208 126.085 24.6481 133.687V133.681Z" fill="#A1C128"/>
<path d="M38.8698 126.786C38.2008 121.916 37.5255 117.041 36.8565 112.172C36.0589 106.595 38.5032 102.073 44.8003 101.443C51.0975 100.845 54.3586 104.807 54.6481 110.435C54.9246 115.343 55.2012 120.257 55.4778 125.165C55.7673 130.825 53.4002 134.98 48.1 135.482C42.8063 136.01 39.6738 132.388 38.8698 126.786ZM49.5602 110.782C49.4508 109.406 49.1421 105.99 45.2763 106.357C41.4105 106.749 41.7643 110.158 41.9187 111.528C42.4783 116.417 43.0379 121.299 43.5975 126.187C43.7583 127.577 44.1957 130.922 47.6241 130.574C51.0524 130.253 50.8402 126.882 50.7308 125.493C50.3385 120.591 49.9525 115.69 49.5602 110.789V110.782Z" fill="#A1C128"/>
<path d="M58.7324 125.01C58.4108 117.067 58.0892 109.123 57.7676 101.179C59.5686 101.108 61.3696 101.057 63.1707 101.025C63.3057 108.975 63.4408 116.925 63.5759 124.875C63.6016 126.271 63.756 129.552 67.0622 129.539C70.3748 129.552 70.5227 126.271 70.5484 124.875C70.6835 116.925 70.8186 108.975 70.9536 101.025C72.7547 101.057 74.5557 101.108 76.3567 101.179C76.0351 109.123 75.7135 117.067 75.3919 125.01C75.1346 130.671 72.4202 134.575 67.0622 134.562C61.7041 134.575 58.9897 130.761 58.7324 125.01Z" fill="#A1C128"/>
<path d="M78.0548 134.247C78.6658 123.28 79.2769 112.313 79.888 101.346C82.7632 101.507 85.6384 101.726 88.5072 101.996C95.8463 102.716 98.252 107.45 97.4608 112.879C96.9076 116.822 94.978 119.916 91.4402 121.035C92.463 125.962 93.3763 130.889 94.1804 135.823C92.5787 135.598 90.9707 135.392 89.3626 135.212C88.5329 130.619 87.6131 126.027 86.5968 121.441C85.5998 121.344 84.5964 121.26 83.5994 121.183C83.2456 125.641 82.8982 130.098 82.5445 134.556C81.0458 134.44 79.547 134.337 78.0483 134.254L78.0548 134.247ZM83.9789 116.404C85.0337 116.488 86.0886 116.578 87.1371 116.681C91.3631 117.092 92.2571 113.619 92.4179 112.23C92.5787 110.859 92.5144 107.2 88.0633 106.762C86.9634 106.659 85.8571 106.563 84.7572 106.473C84.4934 109.785 84.2361 113.091 83.9724 116.404H83.9789Z" fill="#A1C128"/>
<path d="M98.4901 127.262C99.2363 122.399 99.9888 117.543 100.735 112.68C101.565 107.103 105.199 103.482 111.432 104.691C117.658 105.939 119.671 110.673 118.334 116.147C117.195 120.932 116.05 125.711 114.912 130.497C113.567 135.997 110.094 139.296 104.852 138.248C99.6093 137.225 97.6475 132.858 98.4837 127.255L98.4901 127.262ZM113.336 115.015C113.625 113.664 114.301 110.306 110.48 109.534C106.653 108.795 106.016 112.165 105.778 113.522C104.916 118.366 104.054 123.203 103.192 128.046C102.948 129.423 102.407 132.755 105.804 133.411C109.193 134.093 109.952 130.806 110.248 129.436C111.277 124.631 112.307 119.82 113.336 115.015Z" fill="#A1C128"/>
<path d="M47.1289 155.139H51.2198V153.988H48.3446V151.91H50.866V150.759H48.3446V148.681H51.2198V147.53H47.1289V155.139Z" fill="#E5376B"/>
<path d="M54.0306 147.382C52.6155 147.382 51.998 148.289 51.998 149.549C51.998 150.919 52.7506 151.408 53.947 151.936C54.7446 152.289 54.944 152.611 54.944 153.164V153.209C54.944 153.467 54.8797 154.148 54.0371 154.148C53.1494 154.148 53.1173 153.396 53.1173 153.029V152.341H51.998V153.029C51.998 154.116 52.3776 155.274 54.0306 155.274C55.5358 155.274 56.0632 154.335 56.0632 153.106C56.0632 151.633 55.3106 151.28 54.1143 150.726C53.5161 150.45 53.1173 150.128 53.1173 149.485V149.44C53.1173 149.183 53.1816 148.501 54.0242 148.501C54.9118 148.501 54.944 149.253 54.944 149.62V149.884H56.0632V149.62C56.0632 148.533 55.6901 147.375 54.0306 147.375V147.382Z" fill="#E5376B"/>
<path d="M56.835 148.713H58.2886V155.139H59.5043V148.713H60.9516V147.53H56.835V148.713Z" fill="#E5376B"/>
<path d="M64.4443 153.769H63.0742V155.139H64.4443V153.769Z" fill="#E5376B"/>
<path d="M69.436 151.775C70.2979 150.913 70.6645 150.315 70.6645 149.517C70.6645 148.166 69.9763 147.382 68.632 147.382C67.2169 147.382 66.5994 148.308 66.5994 149.627V150.07H67.725V149.627C67.725 149.305 67.7379 148.507 68.632 148.507C69.4424 148.507 69.5196 149.106 69.5196 149.511C69.5196 150.122 68.9793 150.662 68.6255 151.016C67.6092 152.032 66.5801 152.81 66.5801 154.354V155.126H70.671V153.016H69.5839V153.981H67.7572C67.7572 153.261 68.6448 152.566 69.436 151.768V151.775Z" fill="#E5376B"/>
<path d="M73.4945 147.382C72.1244 147.382 71.4619 148.308 71.4619 149.627V153.036C71.4619 154.354 72.1244 155.28 73.4945 155.28C74.8646 155.28 75.5271 154.354 75.5271 153.036V149.627C75.5271 148.308 74.8646 147.382 73.4945 147.382ZM72.5747 149.627C72.5747 149.305 72.594 148.488 73.4945 148.488C74.157 148.488 74.4014 148.951 74.4014 149.305L72.5747 151.659V149.627ZM74.4143 153.036C74.4143 153.357 74.395 154.174 73.4945 154.174C72.832 154.174 72.6004 153.711 72.6004 153.357L74.4143 151.009V153.036Z" fill="#E5376B"/>
<path d="M79.1679 151.775C80.0298 150.913 80.3965 150.315 80.3965 149.517C80.3965 148.166 79.7082 147.382 78.3639 147.382C76.9488 147.382 76.3313 148.308 76.3313 149.627V150.07H77.4569V149.627C77.4569 149.305 77.4698 148.507 78.3639 148.507C79.1744 148.507 79.2515 149.106 79.2515 149.511C79.2515 150.122 78.7112 150.662 78.3575 151.016C77.3412 152.032 76.312 152.81 76.312 154.354V155.126H80.4029V153.016H79.3159V153.981H77.4891C77.4891 153.261 78.3768 152.566 79.1679 151.768V151.775Z" fill="#E5376B"/>
<path d="M83.6831 150.579L85.2654 148.61V147.523H81.1938V149.292H82.2809V148.539H84.0305L81.8757 151.202L82.6282 151.833C82.8469 151.633 83.1364 151.621 83.2393 151.621C83.503 151.621 84.1462 151.73 84.1462 152.881C84.1462 153.743 83.7732 154.155 83.2393 154.155C82.7054 154.155 82.3516 153.878 82.3516 153.068V152.849H81.2003V153.068C81.2003 155.062 82.506 155.268 83.2329 155.268C83.9211 155.268 85.2912 155.068 85.2912 152.881C85.2912 151.498 84.6608 150.572 83.6896 150.572L83.6831 150.579Z" fill="#E5376B"/>
<path d="M120.263 50.7053C115.664 45.1736 109.438 41.1277 102.632 38.8635C99.2105 37.725 95.6149 37.0625 92.0193 36.8502C90.1347 36.7409 88.2822 36.7731 86.4104 37.0368C84.648 37.2876 82.9241 37.725 81.2196 38.2332C77.7269 39.2816 74.3049 40.6517 70.7029 41.3142C70.5035 41.3528 70.3041 41.385 70.1047 41.4171C70.0018 41.4364 69.8989 41.4493 69.7959 41.4622C69.7895 41.4622 69.7831 41.4622 69.7766 41.4622C69.3521 41.5007 68.934 41.5522 68.5031 41.5715C68.0978 41.5908 67.6926 41.5972 67.2874 41.5844C67.8984 38.7735 68.3551 35.924 68.6574 33.0617C70.3298 33.5312 72.0665 33.737 73.8289 33.5505C76.3439 33.2868 78.7303 32.457 80.8915 31.1449C84.8795 28.7135 87.8383 24.9185 89.0154 20.3709C89.6715 17.8366 89.7358 15.2315 89.2534 12.6651C89.1055 11.8932 88.1535 11.1406 87.3559 11.2178C80.467 11.9061 73.9254 15.1415 69.2749 20.2937C69.1656 20.4159 69.0627 20.5381 68.9533 20.6539C68.8697 19.2388 68.7475 17.8237 68.5867 16.4151C68.4709 15.3923 67.7634 14.3953 66.6184 14.4468C65.6536 14.4918 64.5215 15.3216 64.6502 16.4151C65.1519 20.8404 65.2741 25.3108 64.9975 29.7555C64.7531 33.647 64.2578 37.1461 63.4152 40.9283C62.4439 40.6967 61.4791 40.4587 60.5142 40.2143C56.6356 39.243 52.7698 38.2782 48.7947 37.7829C44.6845 37.2683 40.555 37.4484 36.5156 38.3618C28.6618 40.1371 21.477 44.0801 14.6846 48.2803C13.8548 48.7949 13.0315 49.3095 12.2082 49.8305C11.3398 50.3772 10.9089 51.6122 11.5006 52.5256C12.0602 53.3939 13.2631 53.8185 14.1957 53.2331C17.5019 51.1427 20.8402 49.0908 24.3072 47.2705C26.0182 46.3699 27.7613 45.5209 29.543 44.7683C29.6138 44.7426 29.8904 44.6268 29.9418 44.6011C30.1541 44.5175 30.3664 44.4274 30.5786 44.3438C31.0611 44.1508 31.5499 43.9707 32.0388 43.7906C32.9586 43.4562 33.8848 43.1538 34.8175 42.8772C35.7244 42.6071 36.6378 42.3691 37.564 42.1633C38.0529 42.0539 38.5482 41.951 39.0434 41.861C39.2814 41.8159 39.5194 41.7773 39.7574 41.7387C39.8603 41.7194 39.9633 41.7066 40.0597 41.6937C40.1176 41.6873 40.1562 41.6809 40.1948 41.6744C40.2077 41.6744 40.227 41.6744 40.2463 41.6744C42.2017 41.4557 44.1635 41.3785 46.1318 41.4879C47.0837 41.5393 48.0228 41.6358 48.9684 41.7516C49.0842 41.7709 49.1935 41.7838 49.3093 41.8031C49.528 41.8352 49.7467 41.8674 49.9654 41.906C50.4671 41.9896 50.9688 42.0732 51.4641 42.1697C53.3552 42.5299 55.2269 42.9737 57.0923 43.4304C58.9834 43.9 60.8616 44.3824 62.7591 44.8262C64.6051 45.2572 66.4448 45.5981 68.3487 45.5209C72.0151 45.373 75.5271 44.2216 78.9812 43.0831C80.6986 42.517 82.4224 41.951 84.1784 41.4943C85.0339 41.2756 85.9022 41.0827 86.7706 40.9347C86.8349 40.9218 87.1179 40.8833 87.2144 40.864C87.2466 40.864 87.2723 40.8575 87.2852 40.8575C87.401 40.8447 87.5167 40.8318 87.6325 40.8189C88.0892 40.7739 88.5523 40.7417 89.009 40.7225C90.7007 40.671 92.4052 40.7675 94.084 40.954C94.2834 40.9733 94.4828 40.999 94.6822 41.0248C94.7916 41.0376 94.9009 41.0569 95.0103 41.0698C95.4348 41.1341 95.8593 41.2049 96.2839 41.2821C97.1265 41.4364 97.9691 41.6165 98.7989 41.8288C100.458 42.2469 102.092 42.7743 103.687 43.4111C103.829 43.469 103.977 43.5269 104.118 43.5848C104.157 43.6041 104.401 43.707 104.479 43.7392C104.897 43.9257 105.308 44.1122 105.72 44.3116C106.492 44.6847 107.244 45.0835 107.991 45.508C109.425 46.3249 110.808 47.2383 112.114 48.2417C112.191 48.2996 112.429 48.4926 112.467 48.5247C112.622 48.6534 112.776 48.7756 112.93 48.9042C113.259 49.1808 113.587 49.4574 113.902 49.7469C114.545 50.3193 115.162 50.924 115.761 51.5415C116.359 52.1654 116.938 52.815 117.491 53.4776C118.153 54.2752 119.601 54.2108 120.276 53.4776C121.054 52.6285 120.984 51.5415 120.276 50.6924L120.263 50.7053ZM70.4134 25.1436C70.5228 24.9828 70.6386 24.8284 70.7479 24.674C70.7929 24.6161 70.9087 24.4618 70.9537 24.3974C71.1724 24.1209 71.3911 23.8507 71.6163 23.587C72.639 22.397 73.7711 21.3035 74.9868 20.313C75.0575 20.2551 75.2633 20.0943 75.2826 20.075C75.3791 20.0042 75.4692 19.9335 75.5657 19.8627C75.9001 19.6183 76.2346 19.3803 76.5819 19.1487C77.2252 18.7242 77.8813 18.319 78.5631 17.9524C79.2642 17.5664 79.9846 17.2191 80.7114 16.8975C80.7372 16.8846 80.7565 16.8782 80.7693 16.8717C80.7886 16.8653 80.8144 16.8524 80.8465 16.8396C81.0266 16.7688 81.2067 16.6981 81.3868 16.6273C81.7728 16.4794 82.1587 16.3443 82.551 16.2157C83.3615 15.9519 84.1848 15.7268 85.021 15.5467C85.2269 15.5017 85.4263 15.4631 85.6321 15.4245C85.6385 15.6882 85.645 15.9519 85.6385 16.2157C85.6321 16.6788 85.5871 17.1419 85.5549 17.605C85.5549 17.6307 85.5485 17.6758 85.542 17.7144C85.5356 17.7723 85.5227 17.8366 85.5163 17.8945C85.4777 18.1389 85.4327 18.3769 85.3812 18.6213C85.1947 19.5154 84.9181 20.3773 84.5901 21.2264C84.5772 21.2585 84.4421 21.5673 84.41 21.6445C84.3199 21.8439 84.2234 22.0368 84.1205 22.2298C83.8954 22.6672 83.6445 23.0917 83.3808 23.5034C83.265 23.6899 83.1428 23.87 83.0142 24.0437C82.9691 24.1016 82.7762 24.3589 82.744 24.4039C82.461 24.7512 82.1715 25.0857 81.8628 25.4073C81.5412 25.7418 81.2003 26.057 80.8465 26.3593C80.7629 26.43 80.6793 26.5008 80.5957 26.5715C80.5635 26.5973 80.467 26.6745 80.4156 26.7195C80.2033 26.8803 79.991 27.0347 79.7723 27.1826C78.9104 27.7808 77.997 28.2954 77.0386 28.7263C76.9936 28.7392 76.627 28.8936 76.5755 28.9129C76.3504 28.9965 76.1253 29.0737 75.9001 29.1444C75.392 29.3052 74.8774 29.4339 74.35 29.5304C74.2342 29.5497 74.1184 29.569 74.0026 29.5883C73.9705 29.5883 73.9447 29.6011 73.919 29.6011C73.8933 29.6011 73.8611 29.6011 73.8289 29.6076C73.5652 29.6333 73.3015 29.6526 73.0378 29.6654C72.4782 29.6912 71.9121 29.6719 71.3525 29.6204C71.2882 29.6204 71.2175 29.6076 71.1531 29.6011C71.1081 29.5947 70.8637 29.5561 70.8058 29.5432C70.5035 29.4853 70.2076 29.421 69.9117 29.3438C69.8731 29.3374 69.841 29.3245 69.8024 29.3117C73.1664 28.0831 76.2796 26.1856 78.9104 23.7349C79.3542 23.3233 79.3671 22.6993 78.9554 22.2555C78.5888 21.8567 77.9199 21.7023 77.3988 22.1783C74.9932 24.4167 72.1373 26.1534 69.0434 27.2791C69.0434 27.2791 69.0434 27.2791 69.0434 27.2727C69.0884 27.2083 69.1334 27.144 69.172 27.0797C69.5579 26.4107 69.9632 25.7547 70.407 25.1243L70.4134 25.1436ZM94.6822 41.0376C94.7787 41.0505 95.0296 41.0827 94.6822 41.0376V41.0376Z" fill="#A1C128"/>
</g>
<defs>
<clipPath id="clip0_452_503">
<rect width="130.458" height="167" fill="white"/>
</clipPath>
</defs>
</svg>
