<svg width="27" height="30" viewBox="0 0 27 30" fill="none" xmlns="http://www.w3.org/2000/svg">
<g clip-path="url(#clip0_426_4874)">
<path d="M13.7502 17.3207C16.6946 17.3207 19.0815 14.9338 19.0815 11.9894C19.0815 9.04497 16.6946 6.65808 13.7502 6.65808C10.8059 6.65808 8.41895 9.04497 8.41895 11.9894C8.41895 14.9338 10.8059 17.3207 13.7502 17.3207Z" stroke="#E5376B" stroke-width="2.38827" stroke-linecap="round" stroke-linejoin="round"/>
<path d="M24.4131 11.9894C24.4131 21.3487 16.2005 26.5983 14.19 27.7463C14.056 27.8228 13.9043 27.8631 13.7499 27.8631C13.5955 27.8631 13.4438 27.8228 13.3098 27.7463C11.2993 26.5971 3.08789 21.3463 3.08789 11.9894C3.08789 9.16147 4.21127 6.4494 6.2109 4.44978C8.21052 2.45016 10.9226 1.32678 13.7505 1.32678C16.5784 1.32678 19.2904 2.45016 21.2901 4.44978C23.2897 6.4494 24.4131 9.16147 24.4131 11.9894Z" stroke="#E5376B" stroke-width="2.38827" stroke-linecap="round" stroke-linejoin="round"/>
</g>
<defs>
<clipPath id="clip0_426_4874">
<rect width="25.2095" height="29.19" fill="white" transform="translate(0.897461)"/>
</clipPath>
</defs>
</svg>
