<svg width="30" height="22" viewBox="0 0 30 22" fill="none" xmlns="http://www.w3.org/2000/svg">
<g clip-path="url(#clip0_426_4880)">
<path fill-rule="evenodd" clip-rule="evenodd" d="M3.61059 2.50633C3.23713 2.50633 2.93438 2.81803 2.93438 3.20252V18.7974C2.93438 19.182 3.23713 19.4937 3.61059 19.4937H26.3315C26.7049 19.4937 27.0077 19.182 27.0077 18.7974V3.20252C27.0077 2.81803 26.7049 2.50633 26.3315 2.50633H3.61059ZM0.5 3.20252C0.5 1.43382 1.89266 0 3.61059 0H26.3315C28.0494 0 29.442 1.43382 29.442 3.20252V18.7974C29.442 20.5662 28.0494 22 26.3315 22H3.61059C1.89266 22 0.5 20.5662 0.5 18.7974V3.20252Z" fill="#E5376B"/>
<path fill-rule="evenodd" clip-rule="evenodd" d="M1.18018 1.20429C1.59002 0.655696 2.35422 0.553033 2.88708 0.974991L13.167 9.11556C13.6842 9.52516 14.3184 9.7473 14.9709 9.7473C15.6234 9.7473 16.2576 9.52521 16.7747 9.1156L27.0548 0.974991C27.5876 0.553034 28.3519 0.655696 28.7617 1.20429C29.1715 1.75289 29.0718 2.53968 28.539 2.96164L18.2591 11.1021C18.2591 11.1022 18.2592 11.1021 18.2591 11.1021C17.3164 11.8487 16.1603 12.2536 14.9709 12.2536C13.7815 12.2536 12.6255 11.8488 11.6828 11.1022C11.6828 11.1022 11.6829 11.1022 11.6828 11.1022L1.4029 2.96164C0.870048 2.53968 0.770332 1.75289 1.18018 1.20429Z" fill="#E5376B"/>
</g>
<defs>
<clipPath id="clip0_426_4880">
<rect width="29" height="22" fill="white" transform="translate(0.5)"/>
</clipPath>
</defs>
</svg>
