<svg width="24" height="29" viewBox="0 0 24 29" fill="none" xmlns="http://www.w3.org/2000/svg">
<g clip-path="url(#clip0_426_4868)">
<path fill-rule="evenodd" clip-rule="evenodd" d="M2.63384 0.818014C3.15829 0.294212 3.86922 0 4.61045 0C5.35168 0 6.0626 0.294212 6.58706 0.818014L9.77693 4.01179C9.77682 4.01168 9.77704 4.0119 9.77693 4.01179C10.0366 4.27123 10.2429 4.57963 10.3835 4.9187C10.5242 5.25794 10.5965 5.62157 10.5965 5.98879C10.5965 6.356 10.5242 6.71963 10.3835 7.05887C10.243 7.39771 10.0372 7.70558 9.7778 7.9649C9.77778 7.96493 9.77783 7.96488 9.7778 7.9649C9.62514 8.1178 9.53932 8.3251 9.53932 8.54116C9.53932 8.75725 9.62509 8.96452 9.7778 9.11741L14.8835 14.2241C14.959 14.2997 15.0486 14.3596 15.1472 14.4005C15.2459 14.4414 15.3516 14.4624 15.4584 14.4624C15.5652 14.4624 15.6709 14.4414 15.7696 14.4005C15.8682 14.3596 15.9578 14.2997 16.0333 14.2241C16.5578 13.7003 17.2696 13.4052 18.0108 13.4052C18.752 13.4052 19.4629 13.6994 19.9874 14.2232L23.1791 17.413C23.7029 17.9375 23.9971 18.6484 23.9971 19.3896C23.9971 20.1308 23.7029 20.8417 23.1791 21.3662L22.4213 22.124C21.3907 23.1546 20.0395 23.803 18.5906 23.9618C17.1484 24.12 15.6953 23.7838 14.4694 23.0086C14.452 22.9982 14.4349 22.9874 14.4182 22.9762C9.13808 19.4076 4.59115 14.8596 1.02372 9.57868C1.02259 9.57701 1.02147 9.57533 1.02035 9.57365L1.01252 9.56191C1.00858 9.55601 1.00471 9.55006 1.0009 9.54408C0.218756 8.31442 -0.12079 6.85484 0.0382979 5.40622C0.197386 3.95759 0.8456 2.6065 1.87597 1.57588L2.63384 0.818014ZM4.03429 2.22004C4.03427 2.22006 4.03433 2.22 4.03429 2.22004L3.27737 2.97696C3.27734 2.97698 3.27739 2.97694 3.27737 2.97696C2.56574 3.68879 2.11799 4.62203 2.0081 5.62254C1.89859 6.61974 2.13118 7.62444 2.66754 8.47198C6.0876 13.5341 10.4449 17.8946 15.5044 21.3185C15.5086 21.321 15.5128 21.3236 15.517 21.3263C16.3661 21.8669 17.3741 22.1017 18.3746 21.9919C19.3752 21.8822 20.3083 21.4345 21.02 20.7228L21.777 19.9658C21.9298 19.813 22.0154 19.6057 22.0154 19.3896C22.0154 19.1736 21.9298 18.9665 21.7771 18.8136C21.7771 18.8135 21.7771 18.8137 21.7771 18.8136L18.587 15.6253C18.4342 15.4727 18.2269 15.3869 18.0108 15.3869C17.7948 15.3869 17.5877 15.4726 17.4348 15.6251C17.1755 15.8846 16.8674 16.0906 16.5284 16.2311C16.1892 16.3717 15.8256 16.4441 15.4584 16.4441C15.0912 16.4441 14.7276 16.3717 14.3884 16.2311C14.0491 16.0904 13.741 15.8843 13.4814 15.6245L8.37568 10.5178C7.85188 9.99331 7.55767 9.2824 7.55767 8.54116C7.55767 7.79993 7.85188 7.08901 8.37568 6.56455L8.37655 6.56368C8.4521 6.48822 8.51204 6.3986 8.55294 6.29995C8.59384 6.20131 8.61488 6.09558 8.61488 5.98879C8.61488 5.882 8.59384 5.77626 8.55294 5.67762C8.51204 5.57897 8.4521 5.48935 8.37655 5.4139L5.1867 2.22013C5.1866 2.22002 5.1868 2.22024 5.1867 2.22013C5.03383 2.06762 4.8264 1.98166 4.61045 1.98166C4.3944 1.98166 4.18718 2.06738 4.03429 2.22004Z" fill="#E5376B"/>
</g>
<defs>
<clipPath id="clip0_426_4868">
<rect width="24" height="24" fill="white"/>
</clipPath>
</defs>
</svg>
